<svg xmlns="http://www.w3.org/2000/svg" viewBox="0 0 96 96" fill="none">
  <rect width="96" height="96" rx="48" fill="url(#bg)"/>
  <circle cx="48" cy="36" r="18" fill="#FCE1D1"/>
  <path d="M23 82c4-15 16-24 25-24s21 9 25 24" fill="#FCE1D1"/>
  <path d="M30 39c0-13 8-22 20-22 12 0 20 9 20 21 0 2 0 4-1 6-3-5-7-8-11-10-6 2-13 4-21 5l-7 0Z" fill="#1E293B"/>
  <path d="M27 30c6-10 14-15 25-15 9 0 16 4 21 10-7 2-15 4-23 5-8 1-16 1-23 0Z" fill="#A855F7"/>
  <defs>
    <linearGradient id="bg" x1="10" y1="10" x2="84" y2="90" gradientUnits="userSpaceOnUse">
      <stop stop-color="#2DD4BF"/>
      <stop offset="1" stop-color="#0F766E"/>
    </linearGradient>
  </defs>
</svg>
