<svg xmlns="http://www.w3.org/2000/svg" viewBox="0 0 96 96" fill="none">
  <rect width="96" height="96" rx="48" fill="url(#bg)"/>
  <circle cx="48" cy="37" r="18" fill="#FFE5D3"/>
  <path d="M23 82c4-15 16-24 25-24s21 9 25 24" fill="#FFE5D3"/>
  <path d="M28 40c0-14 9-24 20-24 13 0 22 10 22 24l-4-3c-8-6-18-9-28-7-4 1-7 4-10 10Z" fill="#111827"/>
  <path d="M28 32c2-9 10-15 20-15 8 0 15 4 20 12-4 2-10 3-17 4-10 1-17 1-23-1Z" fill="#F43F5E"/>
  <defs>
    <linearGradient id="bg" x1="14" y1="6" x2="84" y2="92" gradientUnits="userSpaceOnUse">
      <stop stop-color="#F59E0B"/>
      <stop offset="1" stop-color="#EA580C"/>
    </linearGradient>
  </defs>
</svg>
